M48
;DRILL file {KiCad (5.0.1-3-g963ef8bb5)} date Friday, February 22, 2019 at 08:11:56 AM
;FORMAT={-:-/ absolute / metric / decimal}
FMAT,2
METRIC,TZ
T1C0.400
T2C0.500
T3C0.600
T4C1.040
T5C1.470
T6C2.499
T7C2.499
%
G90
G05
M71
T1
X26.162Y-25.273
X26.924Y-57.277
X30.48Y-41.402
X32.385Y-38.354
X35.687Y-61.849
X35.687Y-62.738
X37.846Y-41.656
X37.846Y-43.053
X38.735Y-30.988
X38.989Y-53.086
X39.751Y-30.226
X40.386Y-92.456
X42.164Y-30.226
X42.164Y-52.451
X43.053Y-30.988
X43.18Y-44.577
X43.815Y-83.947
X43.942Y-68.326
X44.069Y-43.053
X44.069Y-53.34
X44.704Y-73.025
X45.466Y-61.468
X45.466Y-62.357
X45.466Y-71.374
X45.847Y-76.708
X46.482Y-64.77
X46.482Y-91.059
X46.609Y-102.108
X47.244Y-110.109
X47.625Y-29.718
X47.625Y-33.909
X47.752Y-71.374
X47.879Y-44.577
X48.006Y-62.611
X48.641Y-61.595
X49.784Y-73.406
X49.911Y-81.915
X50.546Y-99.187
X50.546Y-101.727
X50.8Y-81.915
X55.499Y-74.676
X55.88Y-37.973
X56.007Y-40.513
X56.007Y-42.291
X56.007Y-69.977
X56.134Y-61.849
X56.642Y-71.755
X57.15Y-73.406
X57.785Y-41.656
X57.785Y-72.644
X59.309Y-44.45
X59.436Y-25.273
X59.69Y-75.438
X60.325Y-37.338
X61.595Y-73.533
X62.357Y-57.785
X66.802Y-39.878
X75.184Y-75.946
X82.042Y-101.727
X89.408Y-98.679
X91.186Y-99.187
X94.107Y-75.946
X113.792Y-99.187
X113.792Y-101.219
X161.163Y-100.838
X161.544Y-98.679
X216.281Y-98.806
X216.281Y-101.346
X233.299Y-75.946
X245.237Y-101.727
X252.349Y-33.528
X252.349Y-75.946
X254.381Y-98.806
X254.381Y-100.965
X254.762Y-39.243
X257.556Y-44.069
X259.842Y-111.506
X261.874Y-54.229
X264.668Y-73.406
X266.319Y-92.456
X266.446Y-64.008
X268.986Y-68.326
X269.367Y-30.099
X271.399Y-34.925
X277.876Y-47.752
X278.638Y-57.658
X280.67Y-99.187
X282.575Y-44.323
X284.988Y-101.6
X286.766Y-96.393
T2
X24.358Y-76.45
X24.358Y-81.65
X26.4Y-76.45
X26.4Y-81.65
X28.238Y-77.212
X28.238Y-80.888
X29.Y-79.05
X45.5Y-50.45
X46.174Y-48.824
X46.174Y-52.076
X47.8Y-48.15
X47.8Y-52.75
X49.426Y-48.824
X49.426Y-52.076
X50.1Y-50.45
X149.6Y-67.25
X149.6Y-71.85
X150.8Y-67.25
X150.8Y-71.85
X152.Y-67.25
X152.Y-71.85
X211.9Y-105.45
X211.9Y-110.05
X213.1Y-105.45
X213.1Y-110.05
X214.3Y-105.45
X214.3Y-110.05
X281.45Y-48.15
X281.45Y-52.75
X282.65Y-48.15
X282.65Y-52.75
X283.85Y-48.133
X283.85Y-52.75
X301.2Y-79.05
X301.962Y-77.212
X301.962Y-80.888
X303.8Y-76.45
X303.8Y-81.65
X305.842Y-76.45
X305.842Y-81.65
T4
X297.18Y-36.83
X299.72Y-36.83
X144.78Y-36.83
X147.32Y-36.83
X30.48Y-26.67
X33.02Y-26.67
X113.824Y-113.03
X116.364Y-113.03
X82.867Y-113.03
X85.407Y-113.03
X54.292Y-93.98
X56.832Y-93.98
X168.593Y-93.98
X171.132Y-93.98
X49.53Y-26.67
X52.07Y-26.67
X268.605Y-113.03
X271.145Y-113.03
X63.817Y-74.93
X66.358Y-74.93
X154.305Y-55.88
X156.845Y-55.88
X249.555Y-55.88
X252.095Y-55.88
X259.08Y-36.83
X261.62Y-36.83
X59.055Y-55.88
X61.595Y-55.88
X106.68Y-36.83
X109.22Y-36.83
X206.692Y-93.98
X209.232Y-93.98
X270.986Y-113.03
X273.526Y-113.03
X292.417Y-113.03
X294.957Y-113.03
X59.055Y-113.03
X61.595Y-113.03
X211.455Y-55.88
X213.995Y-55.88
X68.58Y-36.83
X71.12Y-36.83
X82.867Y-74.93
X85.407Y-74.93
X80.486Y-113.03
X83.026Y-113.03
X125.73Y-36.83
X128.27Y-36.83
X182.88Y-36.83
X185.42Y-36.83
X290.989Y-59.055
X290.989Y-61.595
X187.642Y-93.98
X190.183Y-93.98
X159.067Y-74.93
X161.607Y-74.93
X280.511Y-93.98
X283.051Y-93.98
X151.924Y-113.03
X154.464Y-113.03
X268.605Y-55.88
X271.145Y-55.88
X278.13Y-36.83
X280.67Y-36.83
X292.417Y-55.88
X294.957Y-55.88
X294.799Y-113.03
X297.339Y-113.03
X173.355Y-55.88
X175.895Y-55.88
X244.792Y-93.98
X247.332Y-93.98
X201.93Y-36.83
X204.47Y-36.83
X56.674Y-113.03
X59.214Y-113.03
X223.361Y-113.03
X225.901Y-113.03
X32.861Y-113.03
X35.401Y-113.03
X42.386Y-93.98
X44.926Y-93.98
X111.442Y-93.98
X113.983Y-93.98
X135.255Y-55.88
X137.795Y-55.88
X163.83Y-36.83
X166.37Y-36.83
X73.343Y-93.98
X75.882Y-93.98
X37.624Y-74.93
X40.164Y-74.93
X140.017Y-74.93
X142.558Y-74.93
X220.98Y-36.83
X223.52Y-36.83
X244.792Y-113.03
X247.332Y-113.03
X235.267Y-74.93
X237.807Y-74.93
X270.986Y-93.98
X273.526Y-93.98
X35.242Y-113.03
X37.782Y-113.03
X116.205Y-55.88
X118.745Y-55.88
X35.242Y-55.88
X37.782Y-55.88
X285.274Y-74.93
X287.814Y-74.93
X78.105Y-55.88
X80.645Y-55.88
X254.317Y-74.93
X256.858Y-74.93
X32.861Y-74.93
X35.401Y-74.93
X197.167Y-74.93
X199.707Y-74.93
X297.18Y-93.98
X299.72Y-93.98
X101.917Y-74.93
X104.457Y-74.93
X120.968Y-74.93
X123.507Y-74.93
X185.261Y-113.03
X187.801Y-113.03
X192.405Y-55.88
X194.945Y-55.88
X240.03Y-36.83
X242.57Y-36.83
X147.161Y-113.03
X149.701Y-113.03
X216.218Y-74.93
X218.757Y-74.93
X97.155Y-55.88
X99.695Y-55.88
X130.493Y-93.98
X133.032Y-93.98
X32.861Y-93.98
X35.401Y-93.98
X273.368Y-74.93
X275.907Y-74.93
X178.117Y-74.93
X180.657Y-74.93
X163.83Y-113.03
X166.37Y-113.03
X225.742Y-93.98
X228.282Y-93.98
X247.174Y-113.03
X249.714Y-113.03
X92.392Y-93.98
X94.932Y-93.98
X230.505Y-55.88
X233.045Y-55.88
X87.63Y-36.83
X90.17Y-36.83
X287.655Y-36.83
X290.195Y-36.83
X149.542Y-93.98
X152.082Y-93.98
T5
X35.084Y-67.31
X36.394Y-65.85
X41.394Y-65.35
X41.434Y-64.77
X137.477Y-67.31
X138.787Y-65.85
X143.787Y-65.35
X143.827Y-64.77
X218.44Y-29.21
X219.75Y-27.75
X224.75Y-27.25
X224.79Y-26.67
X242.252Y-105.41
X243.562Y-103.95
X248.562Y-103.45
X248.602Y-102.87
X232.727Y-67.31
X234.037Y-65.85
X239.037Y-65.35
X239.077Y-64.77
X268.446Y-86.36
X269.756Y-84.9
X274.756Y-84.4
X274.796Y-83.82
X32.703Y-105.41
X34.012Y-103.95
X39.012Y-103.45
X39.052Y-102.87
X113.665Y-48.26
X114.975Y-46.8
X119.975Y-46.3
X120.015Y-45.72
X32.703Y-48.26
X34.012Y-46.8
X39.012Y-46.3
X39.052Y-45.72
X282.734Y-67.31
X284.044Y-65.85
X289.044Y-65.35
X289.084Y-64.77
X75.565Y-48.26
X76.875Y-46.8
X81.875Y-46.3
X81.915Y-45.72
X251.777Y-67.31
X253.087Y-65.85
X258.087Y-65.35
X258.127Y-64.77
X30.321Y-67.31
X31.631Y-65.85
X36.631Y-65.35
X36.671Y-64.77
X194.627Y-67.31
X195.938Y-65.85
X200.938Y-65.35
X200.977Y-64.77
X294.64Y-86.36
X295.95Y-84.9
X300.95Y-84.4
X300.99Y-83.82
X99.377Y-67.31
X100.688Y-65.85
X105.688Y-65.35
X105.727Y-64.77
X118.427Y-67.31
X119.737Y-65.85
X124.737Y-65.35
X124.777Y-64.77
X182.721Y-105.41
X184.031Y-103.95
X189.031Y-103.45
X189.071Y-102.87
X189.865Y-48.26
X191.175Y-46.8
X196.175Y-46.3
X196.215Y-45.72
X237.49Y-29.21
X238.8Y-27.75
X243.8Y-27.25
X243.84Y-26.67
X144.621Y-105.41
X145.931Y-103.95
X150.931Y-103.45
X150.971Y-102.87
X213.677Y-67.31
X214.987Y-65.85
X219.987Y-65.35
X220.028Y-64.77
X94.615Y-48.26
X95.925Y-46.8
X100.925Y-46.3
X100.965Y-45.72
X127.953Y-86.36
X129.262Y-84.9
X134.262Y-84.4
X134.302Y-83.82
X30.321Y-86.36
X31.631Y-84.9
X36.631Y-84.4
X36.671Y-83.82
X270.827Y-67.31
X272.137Y-65.85
X277.137Y-65.35
X277.178Y-64.77
X175.577Y-67.31
X176.887Y-65.85
X181.887Y-65.35
X181.927Y-64.77
X161.29Y-105.41
X162.6Y-103.95
X167.6Y-103.45
X167.64Y-102.87
X223.202Y-86.36
X224.512Y-84.9
X229.512Y-84.4
X229.552Y-83.82
X244.634Y-105.41
X245.944Y-103.95
X250.944Y-103.45
X250.984Y-102.87
X89.852Y-86.36
X91.162Y-84.9
X96.162Y-84.4
X96.203Y-83.82
X227.965Y-48.26
X229.275Y-46.8
X234.275Y-46.3
X234.315Y-45.72
X85.09Y-29.21
X86.4Y-27.75
X91.4Y-27.25
X91.44Y-26.67
X285.115Y-29.21
X286.425Y-27.75
X291.425Y-27.25
X291.465Y-26.67
X147.002Y-86.36
X148.312Y-84.9
X153.312Y-84.4
X153.352Y-83.82
X294.64Y-29.21
X295.95Y-27.75
X300.95Y-27.25
X300.99Y-26.67
X142.24Y-29.21
X143.55Y-27.75
X148.55Y-27.25
X148.59Y-26.67
X29.21Y-36.83
X29.25Y-36.25
X34.25Y-35.75
X35.56Y-34.29
X111.284Y-105.41
X112.594Y-103.95
X117.594Y-103.45
X117.634Y-102.87
X80.328Y-105.41
X81.638Y-103.95
X86.638Y-103.45
X86.677Y-102.87
X51.752Y-86.36
X53.062Y-84.9
X58.062Y-84.4
X58.102Y-83.82
X166.052Y-86.36
X167.362Y-84.9
X172.362Y-84.4
X172.403Y-83.82
X48.26Y-36.83
X48.3Y-36.25
X53.3Y-35.75
X54.61Y-34.29
X266.065Y-105.41
X267.375Y-103.95
X272.375Y-103.45
X272.415Y-102.87
X61.277Y-67.31
X62.587Y-65.85
X67.587Y-65.35
X67.627Y-64.77
X151.765Y-48.26
X153.075Y-46.8
X158.075Y-46.3
X158.115Y-45.72
X247.015Y-48.26
X248.325Y-46.8
X253.325Y-46.3
X253.365Y-45.72
X256.54Y-29.21
X257.85Y-27.75
X262.85Y-27.25
X262.89Y-26.67
X56.515Y-48.26
X57.825Y-46.8
X62.825Y-46.3
X62.865Y-45.72
X104.14Y-29.21
X105.45Y-27.75
X110.45Y-27.25
X110.49Y-26.67
X204.153Y-86.36
X205.462Y-84.9
X210.462Y-84.4
X210.502Y-83.82
X268.446Y-105.41
X269.756Y-103.95
X274.756Y-103.45
X274.796Y-102.87
X289.877Y-105.41
X291.188Y-103.95
X296.188Y-103.45
X296.227Y-102.87
X56.515Y-105.41
X57.825Y-103.95
X62.825Y-103.45
X62.865Y-102.87
X208.915Y-48.26
X210.225Y-46.8
X215.225Y-46.3
X215.265Y-45.72
X66.04Y-29.21
X67.35Y-27.75
X72.35Y-27.25
X72.39Y-26.67
X80.328Y-67.31
X81.638Y-65.85
X86.638Y-65.35
X86.677Y-64.77
X77.946Y-105.41
X79.256Y-103.95
X84.256Y-103.45
X84.296Y-102.87
X123.19Y-29.21
X124.5Y-27.75
X129.5Y-27.25
X129.54Y-26.67
X180.34Y-29.21
X181.65Y-27.75
X186.65Y-27.25
X186.69Y-26.67
X293.569Y-64.825
X298.569Y-64.325
X298.609Y-56.515
X300.069Y-57.825
X300.569Y-62.825
X301.149Y-62.865
X185.102Y-86.36
X186.412Y-84.9
X191.412Y-84.4
X191.452Y-83.82
X156.528Y-67.31
X157.838Y-65.85
X162.838Y-65.35
X162.877Y-64.77
X277.971Y-86.36
X279.281Y-84.9
X284.281Y-84.4
X284.321Y-83.82
X149.384Y-105.41
X150.694Y-103.95
X155.694Y-103.45
X155.734Y-102.87
X266.065Y-48.26
X267.375Y-46.8
X272.375Y-46.3
X272.415Y-45.72
X275.59Y-29.21
X276.9Y-27.75
X281.9Y-27.25
X281.94Y-26.67
X289.877Y-48.26
X291.188Y-46.8
X296.188Y-46.3
X296.227Y-45.72
X292.259Y-105.41
X293.569Y-103.95
X298.569Y-103.45
X298.609Y-102.87
X170.815Y-48.26
X172.125Y-46.8
X177.125Y-46.3
X177.165Y-45.72
X242.252Y-86.36
X243.562Y-84.9
X248.562Y-84.4
X248.602Y-83.82
X199.39Y-29.21
X200.7Y-27.75
X205.7Y-27.25
X205.74Y-26.67
X54.134Y-105.41
X55.444Y-103.95
X60.444Y-103.45
X60.484Y-102.87
X220.821Y-105.41
X222.131Y-103.95
X227.131Y-103.45
X227.171Y-102.87
X30.321Y-105.41
X31.631Y-103.95
X36.631Y-103.45
X36.671Y-102.87
X39.846Y-86.36
X41.156Y-84.9
X46.156Y-84.4
X46.196Y-83.82
X108.902Y-86.36
X110.212Y-84.9
X115.212Y-84.4
X115.252Y-83.82
X132.715Y-48.26
X134.025Y-46.8
X139.025Y-46.3
X139.065Y-45.72
X161.29Y-29.21
X162.6Y-27.75
X167.6Y-27.25
X167.64Y-26.67
X70.802Y-86.36
X72.112Y-84.9
X77.112Y-84.4
X77.153Y-83.82
T7
X47.8Y-50.45
T3
X36.518Y-22.938G85X36.518Y-23.537
G05
X36.518Y-26.867G85X36.518Y-27.967
G05
X45.158Y-22.938G85X45.158Y-23.537
G05
X45.158Y-26.867G85X45.158Y-27.967
G05
T6
X149.549Y-69.55G85X152.051Y-69.55
G05
X211.849Y-107.75G85X214.351Y-107.75
G05
X281.399Y-50.45G85X283.901Y-50.45
G05
T0
M30
